# xmcd
#
# Track frame offsets:
#	150
#	40120
#	64385
#	111810
#	131365
#	145582
#	158132
#	195325
#	224880
#	256760
#	277685
#	302532
#
# Disc length: 4359 seconds
# Revision: 1
# Processed by: cddbd v1.5.2PL0 Copyright (c) Steve Scherf et al.
# Submitted via: dBpowerAMP V12.0
#
DISCID=a311050c
DTITLE=Manolis Kalomiris - To dachtylidi tis manas CD2
DYEAR=1991
DGENRE=Classical
TTITLE0=Archi
TTITLE1=(Choros) Perna saita mou gorgi
TTITLE2=(Kyra) Empros ksypnate kosmoi paramythenioi...
TTITLE3=(Giannakis) Sy eisai i neraida tou vounou;
TTITLE4=(Neraida) Poios eis' esy p' antikri stekeis...
TTITLE5=(Giannakis) Kai tora Neraida deikse mou to dromo...
TTITLE6=(Choros) I mera pairnei kai charazei...
TTITLE7=(Eisagogi) Ksimeroma Christougennon
TTITLE8=(Choros) I Parthenos simeron...
TTITLE9=(Erofili) Poios ein' aftos;
TTITLE10=(Giannakis) Mana den akouses poy s' ekraza...
TTITLE11=(Giannakis) Kleioune ta matia mou...
EXTD=
EXTT0=
EXTT1=
EXTT2=
EXTT3=
EXTT4=
EXTT5=
EXTT6=
EXTT7=
EXTT8=
EXTT9=
EXTT10=
EXTT11=
PLAYORDER=
